# xmcd
#
# Track frame offsets: 
#        150
#        8522
#        23595
#        34572
#        45035
#        62632
#        70737
#        83195
#        96390
#        108075
#        122167
#        128885
#        151737
#        162150
#        171105
#        183680
#
# Disc length: 2539 seconds
#
# Revision: 2
# Processed by: cddbd v1.5.2PL0 Copyright (c) Steve Scherf et al.
# Submitted via: ExactAudioCopyFreeDBPlugin 1.0
#
DISCID=b809e910
DTITLE=Big Joe Williams - No More Whiskey
DYEAR=1998
DGENRE=Blues
TTITLE0=Tailor Made Baby
TTITLE1=Prison Bound Blues
TTITLE2=Dark Road Blues
TTITLE3=Hold Up the Light, Let It Shine
TTITLE4=Delta Blues
TTITLE5=Lord Have Mercy
TTITLE6=Don't Your House Look Lonesome
TTITLE7=Somebody's Been Borrowin' That Heavy Stuff O' Mine
TTITLE8=Deal 'Em On Down
TTITLE9=Snitchin' Blues
TTITLE10=Jesus Gonna Make Up My Dyin' Bed
TTITLE11=Lonesome Train Blues
TTITLE12=No More Whiskey
TTITLE13=Liza Jane Blues
TTITLE14=Texas Blues
TTITLE15=When I Lay My Burden Down
EXTD=CD 2047\n\nSubmitted 6/24/97\n[Jmccoy@efn.org]
EXTT0=
EXTT1=
EXTT2=
EXTT3=
EXTT4=
EXTT5=
EXTT6=
EXTT7=
EXTT8=
EXTT9=
EXTT10=
EXTT11=
EXTT12=
EXTT13=
EXTT14=
EXTT15=
PLAYORDER=
